PathFileType	4	(X/Y/Z)	\\147.46.242.158\로컬 디스크 (e)\MOCAP Data\Iguana Capture\iguana\Project 2\Capture day 6 after broken\Session 2\Take05 good walk.trc
DataRate	CameraRate	NumFrames	NumMarkers	Units	OrigDataRate	OrigDataStartFrame	OrigNumFrames
120.0	120.0	11	23	mm	120.0	59	5093
Frame#	Time	ana:head1			ana:head2			ana:bone1			ana:bone2			ana:bone3			ana:tail1			ana:tail2			ana:tail3			ana:tail4			ana:Rforefoot1			ana:Rforefoot2			ana:Rforefoot3			ana:Lforefoot1			ana:Lforefoot2			ana:Lforefoot3			ana:RhindLeg1			ana:RhindLeg2			ana:RhindLeg3			ana:RhindLeg4			ana:LhindLeg1			ana:LhindLeg2			ana:LhindLeg3			ana:LhindLeg4			
		X1	Y1	Z1	X2	Y2	Z2	X3	Y3	Z3	X4	Y4	Z4	X5	Y5	Z5	X6	Y6	Z6	X7	Y7	Z7	X8	Y8	Z8	X9	Y9	Z9	X10	Y10	Z10	X11	Y11	Z11	X12	Y12	Z12	X13	Y13	Z13	X14	Y14	Z14	X15	Y15	Z15	X16	Y16	Z16	X17	Y17	Z17	X18	Y18	Z18	X19	Y19	Z19	X20	Y20	Z20	X21	Y21	Z21	X22	Y22	Z22	X23	Y23	Z23	

4058	33.808	-443.79913	-22.75935	55.41052	-437.57608	-14.09462	54.63116	-430.44885	5.07265	46.24681	-423.57257	31.13374	42.78791	-418.24188	67.32983	34.11695	-415.09808	98.60070	25.58346	-410.30328	131.42366	18.15277	-400.71487	175.40613	10.90453	-394.83719	208.07190	9.56949	-442.06705	8.80645	31.34996	-444.38245	24.22353	26.84407	-440.27341	26.28105	10.06266	-420.14529	-4.08982	30.53777	-408.61777	-5.35969	21.09228	-414.78021	-13.00784	8.84562	-429.21567	66.54873	27.60020	-443.91611	59.89268	26.03461	-444.20966	69.18348	9.13681	-451.56693	59.04749	8.23587	-407.28372	68.96056	28.68648	-392.56168	72.63869	24.07848	-386.30048	90.56916	18.54712	-379.67932	83.29173	10.02151	
4059	33.817	-443.83215	-23.21287	55.44898	-437.57571	-14.56718	54.62120	-430.48737	4.61556	46.31745	-423.67920	30.71733	42.89583	-418.29480	66.84675	34.14047	-414.98047	98.15993	25.65735	-410.23041	130.98761	18.21340	-400.74249	174.98608	10.93548	-394.92426	207.64148	9.57102	-442.10416	8.32420	31.46264	-444.40311	23.74659	26.98443	-440.34311	26.08284	10.25140	-420.12653	-4.41328	30.57022	-408.55399	-5.45170	21.10953	-414.82199	-13.06037	8.91920	-429.27744	66.23396	27.64380	-444.07666	59.83759	25.95755	-444.22739	69.18845	9.14819	-451.59402	59.06917	8.23166	-407.41980	68.39601	28.72955	-392.69275	72.21303	24.23308	-386.36887	90.16546	18.84411	-379.66461	83.12302	10.08467	
4060	33.825	-443.84354	-23.69025	55.46247	-437.56754	-15.04987	54.60640	-430.51981	4.15063	46.38850	-423.78226	30.29213	42.99687	-418.34702	66.37873	34.17175	-414.85742	97.70931	25.73159	-410.14651	130.54193	18.27205	-400.77115	174.55554	10.96744	-395.01691	207.20200	9.56574	-442.14261	7.81759	31.59343	-444.44907	23.24541	27.16599	-440.44656	25.86309	10.47085	-420.10544	-4.73855	30.61109	-408.48737	-5.53887	21.13037	-414.86743	-13.12243	8.98610	-429.33783	65.90866	27.68094	-444.23596	59.78264	25.87860	-444.23883	69.20231	9.14914	-451.60529	59.09241	8.20985	-407.55557	67.82000	28.77069	-392.82217	71.77345	24.38444	-386.43857	89.74390	19.14275	-379.64548	82.93545	10.14083	
4061	33.833	-443.83252	-24.19373	55.45024	-437.55173	-15.54431	54.58785	-430.54694	3.67609	46.45945	-423.88608	29.85638	43.09005	-418.40460	65.92083	34.21465	-414.73392	97.24863	25.80945	-410.05460	130.08614	18.33058	-400.80133	174.11302	10.99960	-395.11490	206.75296	9.55476	-442.18646	7.28118	31.74399	-444.53000	22.71564	27.40009	-440.58795	25.62014	10.71610	-420.08197	-5.06138	30.66322	-408.42047	-5.62059	21.15706	-414.91443	-13.19198	9.04107	-429.40155	65.57317	27.71468	-444.39688	59.72614	25.79911	-444.24564	69.22264	9.14178	-451.60291	59.11535	8.17367	-407.68637	67.24848	28.82346	-392.95230	71.31965	24.53345	-386.50824	89.30522	19.44323	-379.62259	82.72856	10.19544	
4062	33.842	-443.80075	-24.72367	55.41425	-437.52942	-16.05153	54.56729	-430.57022	3.19041	46.53017	-423.99524	29.40860	43.17541	-418.47345	65.46599	34.27160	-414.61484	96.77783	25.89455	-409.95810	129.61980	18.39101	-400.83347	173.65739	11.03150	-395.21793	206.29414	9.53974	-442.23923	6.71053	31.91527	-444.65353	22.15344	27.69560	-440.77005	25.35136	10.98259	-420.05612	-5.37691	30.72931	-408.35632	-5.69659	21.19186	-414.96042	-13.26640	9.08043	-429.47296	65.22835	27.74876	-444.56165	59.66663	25.72047	-444.24969	69.24644	9.12915	-451.59021	59.13602	8.12755	-407.80911	66.69456	28.89956	-393.08496	70.85131	24.68182	-386.57599	88.85007	19.74608	-379.59717	82.50322	10.25458	
4063	33.850	-443.75156	-25.27859	55.35888	-437.50214	-16.57197	54.54694	-430.59161	2.69241	46.60105	-424.11423	28.94770	43.25410	-418.55838	65.00629	34.34369	-414.50516	96.29694	25.99029	-409.86099	129.14247	18.45525	-400.86795	173.18794	11.06306	-395.32520	205.82556	9.52263	-442.30362	6.10251	32.10743	-444.82449	21.55579	28.05802	-440.99420	25.05297	11.26712	-420.02820	-5.68042	30.81169	-408.29816	-5.76720	21.23677	-415.00311	-13.34277	9.10240	-429.55569	64.87550	27.78709	-444.73178	59.60304	25.64401	-444.25320	69.27055	9.11474	-451.57108	59.15269	8.07641	-407.92291	66.16672	29.00728	-393.22171	70.36790	24.83181	-386.63965	88.37870	20.05229	-379.57089	82.26153	10.32444	
4064	33.858	-443.68988	-25.85553	55.29030	-437.47180	-17.10552	54.52933	-430.61310	2.18130	46.67287	-424.24634	28.47306	43.32820	-418.66302	64.53436	34.43071	-414.40884	95.80589	26.09931	-409.76700	128.65363	18.52492	-400.90518	172.70439	11.09456	-395.43591	205.34731	9.50538	-442.38098	5.45554	32.31983	-445.04410	20.92071	28.48886	-441.26035	24.72010	11.56830	-419.99826	-5.96817	30.91194	-408.24915	-5.83356	21.29329	-415.03986	-13.41808	9.10713	-429.65228	64.51603	27.83327	-444.90781	59.53477	25.57080	-444.25803	69.29215	9.10189	-451.54935	59.16414	8.02491	-408.02911	65.66769	29.15044	-393.36356	69.86857	24.98600	-386.69720	87.89062	20.36328	-379.54575	82.00664	10.41068	
4065	33.867	-443.62137	-26.45049	55.21580	-437.44031	-17.65169	54.51694	-430.63690	1.65673	46.74673	-424.39410	27.98456	43.40049	-418.78906	64.04440	34.53145	-414.32864	95.30448	26.22299	-409.67953	128.15266	18.60109	-400.94525	172.20665	11.12650	-395.54910	204.85927	9.48973	-442.47098	4.76956	32.55097	-445.30988	20.24736	28.98546	-441.56732	24.34709	11.88657	-419.96652	-6.23809	31.03058	-408.21191	-5.89773	21.36214	-415.06830	-13.48951	9.09648	-429.76404	64.15131	27.89005	-445.08957	59.46165	25.50152	-444.26569	69.30910	9.09326	-451.52838	59.16992	7.97677	-408.13153	65.19418	29.32788	-393.51102	69.35214	25.14689	-386.74738	87.38438	20.68073	-379.52414	81.74232	10.51789	
4066	33.875	-443.55188	-27.05901	55.14291	-437.40961	-18.20984	54.51195	-430.66504	1.11869	46.82382	-424.55859	27.48249	43.47403	-418.93640	63.53301	34.64396	-414.26596	94.79230	26.36114	-409.60141	127.63882	18.68421	-400.98813	171.69479	11.15943	-395.66379	204.36118	9.47694	-442.57175	4.04594	32.79858	-445.61575	19.53598	29.54112	-441.91342	23.92780	12.22360	-419.93295	-6.49046	31.16687	-408.18857	-5.96268	21.44312	-415.08618	-13.55468	9.07362	-429.89108	63.78238	27.95895	-445.27609	59.38397	25.43631	-444.27682	69.32023	9.09047	-451.51059	59.17037	7.93441	-408.23572	64.73731	29.53370	-393.66415	68.81715	25.31659	-386.79013	86.85773	21.00639	-379.50891	81.47260	10.64924	
4067	33.883	-443.48663	-27.67680	55.07862	-437.38116	-18.77937	54.51588	-430.69894	0.56744	46.90517	-424.73962	26.96745	43.55170	-419.10315	62.99947	34.76590	-414.22076	94.26865	26.51188	-409.53442	127.11125	18.77400	-401.03372	171.16888	11.19383	-395.77893	203.85236	9.46769	-442.67981	3.28710	33.05968	-445.95279	18.78766	30.14565	-442.29697	23.45604	12.58140	-419.89737	-6.72822	31.31861	-408.18002	-6.03218	21.53495	-415.09183	-13.61182	9.04246	-430.03223	63.40971	28.03997	-445.46616	59.30232	25.37474	-444.29144	69.32533	9.09384	-451.49728	59.16657	7.89870	-408.34863	64.28408	29.75809	-393.82303	68.26204	25.49658	-386.82687	86.30758	21.34168	-379.50287	81.20126	10.80610	
4068	33.892	-443.42987	-28.30021	55.02860	-437.35602	-19.36001	54.52939	-430.73972	0.00334	46.99142	-424.93622	26.44015	43.63583	-419.28613	62.44559	34.89479	-414.19168	93.73261	26.67175	-409.47961	126.56905	18.86949	-401.08176	170.62878	11.22989	-395.89374	203.33168	9.46194	-442.79053	2.49616	33.33067	-446.31009	18.00391	30.78611	-442.71698	22.92577	12.96122	-419.85956	-6.95700	31.48215	-408.18637	-6.11058	21.63532	-415.08420	-13.65992	9.00707	-430.18564	63.03308	28.13154	-445.65814	59.21756	25.31578	-444.30856	69.32514	9.10241	-451.48865	59.16023	7.86916	-408.47751	63.81909	29.98869	-393.98764	67.68530	25.68748	-386.86081	85.73060	21.68735	-379.50891	80.93147	10.98807	
